<svg xmlns="http://www.w3.org/2000/svg" width="80mm" height="80mm" viewBox="0 0 226.77 226.77"><defs><style>.cls-1{fill:#722f37;}</style></defs><title>WINEAsset 152L</title><g id="Layer_2" data-name="Layer 2"><g id="Layer_1-2" data-name="Layer 1"><polygon class="cls-1" points="198.43 0 184.25 0 170.08 0 155.91 0 141.73 0 127.56 0 113.39 0 99.21 0 85.04 0 70.87 0 56.69 0 42.52 0 28.35 0 14.17 0 0 0 0 14.17 0 28.35 0 42.52 0 56.69 0 70.87 0 85.04 0 99.21 0 113.39 0 127.56 0 141.73 0 155.91 0 170.08 0 184.25 0 198.43 0 212.6 0 226.77 14.17 226.77 28.35 226.77 42.52 226.77 56.69 226.77 70.87 226.77 85.04 226.77 99.21 226.77 113.39 226.77 127.56 226.77 141.73 226.77 155.91 226.77 170.08 226.77 170.08 212.6 170.08 198.43 170.08 184.25 170.08 170.08 170.08 155.91 170.08 141.73 170.08 127.56 170.08 113.39 170.08 99.21 170.08 85.04 184.25 85.04 198.43 85.04 212.6 85.04 226.77 85.04 226.77 70.87 226.77 56.69 226.77 42.52 226.77 28.35 226.77 14.17 226.77 0 212.6 0 198.43 0"/></g></g></svg>