<svg xmlns="http://www.w3.org/2000/svg" width="65mm" height="70mm" viewBox="0 0 184.25 198.42"><defs><style>.cls-1{fill:#e30613;}.cls-2{fill:#bcb88a;}</style></defs><title>SAGEAsset 6E</title><g id="Layer_2" data-name="Layer 2"><g id="Layer_1-2" data-name="Layer 1"><polygon class="cls-1" points="0 170.08 28.35 184.25 28.35 155.91 0 170.08"/><polygon class="cls-2" points="155.91 113.39 141.73 113.39 127.56 113.39 113.39 113.39 99.21 113.39 85.04 113.39 70.87 113.39 70.87 99.21 70.87 85.04 70.87 70.87 70.87 56.69 70.87 42.52 70.87 28.35 70.87 14.17 70.87 0 56.69 0 42.52 0 28.35 0 14.17 0 14.17 14.17 14.17 28.35 14.17 42.52 14.17 56.69 14.17 70.87 14.17 85.04 14.17 99.21 14.17 113.39 14.17 127.56 14.17 141.73 14.17 155.91 28.35 155.91 28.35 184.25 14.17 184.25 14.17 198.43 28.35 198.43 42.52 198.43 56.69 198.43 70.87 198.43 85.04 198.43 99.21 198.43 113.39 198.43 127.56 198.43 141.73 198.43 155.91 198.43 170.08 198.43 184.25 198.43 184.25 184.25 184.25 170.08 184.25 155.91 184.25 141.73 184.25 127.56 184.25 113.39 170.08 113.39 155.91 113.39"/></g></g></svg>