<svg xmlns="http://www.w3.org/2000/svg" viewBox="0 0 226.77 226.77">
    <defs>
        <style>.cls-1{fill:#524294;}</style>
    </defs>
    <title>PURPLEAsset 13</title>
    <g id="Layer_2" data-name="Layer 2">
        <g id="Layer_1-2" data-name="Layer 1">
            <polygon class="cls-1"
                     points="212.6 0 184.25 0 170.08 0 155.91 0 127.56 0 99.21 0 70.87 0 56.69 0 56.69 14.17 56.69 42.52 56.69 56.69 42.52 56.69 14.17 56.69 0 56.69 0 70.87 0 99.21 0 127.56 0 155.91 0 184.25 0 212.6 0 226.77 14.17 226.77 42.52 226.77 70.87 226.77 99.21 226.77 113.39 226.77 127.56 226.77 155.91 226.77 184.25 226.77 212.6 226.77 226.77 226.77 226.77 212.6 226.77 184.25 226.77 155.91 226.77 127.56 226.77 99.21 226.77 70.87 226.77 42.52 226.77 14.17 226.77 0 212.6 0"/>
        </g>
    </g>
</svg>