<svg xmlns="http://www.w3.org/2000/svg" width="70mm" height="80mm" viewBox="0 0 198.43 226.77"><defs><style>.cls-1{fill:#7eb9e6;}</style></defs><title>AEROAsset 61L</title><g id="Layer_2" data-name="Layer 2"><g id="Layer_1-2" data-name="Layer 1"><polygon class="cls-1" points="170.08 0 155.91 0 141.73 0 141.73 14.17 141.73 28.35 141.73 42.52 141.73 56.69 141.73 70.87 141.73 85.04 141.73 99.21 141.73 113.39 141.73 127.56 141.73 141.73 141.73 155.91 141.73 170.08 127.56 170.08 113.39 170.08 99.21 170.08 85.04 170.08 70.87 170.08 56.69 170.08 56.69 155.91 56.69 141.73 56.69 127.56 56.69 113.39 42.52 113.39 28.35 113.39 14.17 113.39 0 113.39 0 127.56 0 141.73 0 155.91 0 170.08 0 184.25 0 198.43 0 212.6 0 226.77 14.17 226.77 28.35 226.77 42.52 226.77 56.69 226.77 70.87 226.77 85.04 226.77 99.21 226.77 113.39 226.77 127.56 226.77 141.73 226.77 155.91 226.77 170.08 226.77 184.25 226.77 198.43 226.77 198.43 212.6 198.43 198.43 198.43 184.25 198.43 170.08 198.43 155.91 198.43 141.73 198.43 127.56 198.43 113.39 198.43 99.21 198.43 85.04 198.43 70.87 198.43 56.69 198.43 42.52 198.43 28.35 198.43 14.17 198.43 0 184.25 0 170.08 0"/></g></g></svg>