<svg xmlns="http://www.w3.org/2000/svg" width="30mm" height="80mm" viewBox="0 0 85.04 226.77"><defs><style>.cls-1{fill:#7eb9e6;}</style></defs><title>AEROAsset 73L</title><g id="Layer_2" data-name="Layer 2"><g id="Layer_1-2" data-name="Layer 1"><polygon class="cls-1" points="56.69 0 42.52 0 28.35 0 28.35 14.17 28.35 28.35 28.35 42.52 28.35 56.69 28.35 70.87 28.35 85.04 28.35 99.21 28.35 113.39 28.35 127.56 28.35 141.73 28.35 155.91 28.35 170.08 14.17 170.08 0 170.08 0 184.25 0 198.43 0 212.6 0 226.77 14.17 226.77 28.35 226.77 42.52 226.77 56.69 226.77 70.87 226.77 85.04 226.77 85.04 212.6 85.04 198.43 85.04 184.25 85.04 170.08 85.04 155.91 85.04 141.73 85.04 127.56 85.04 113.39 85.04 99.21 85.04 85.04 85.04 70.87 85.04 56.69 85.04 42.52 85.04 28.35 85.04 14.17 85.04 0 70.87 0 56.69 0"/></g></g></svg>