<svg xmlns="http://www.w3.org/2000/svg" width="60mm" height="80mm" viewBox="0 0 170.08 226.77"><defs><style>.cls-1{fill:#7eb9e6;}</style></defs><title>AEROAsset 58L</title><g id="Layer_2" data-name="Layer 2"><g id="Layer_1-2" data-name="Layer 1"><polygon class="cls-1" points="141.73 0 127.56 0 113.39 0 113.39 14.17 113.39 28.35 113.39 42.52 113.39 56.69 113.39 70.87 113.39 85.04 113.39 99.21 113.39 113.39 113.39 127.56 113.39 141.73 113.39 155.91 113.39 170.08 99.21 170.08 85.04 170.08 70.87 170.08 56.69 170.08 56.69 155.91 56.69 141.73 56.69 127.56 56.69 113.39 56.69 99.21 56.69 85.04 42.52 85.04 28.35 85.04 14.17 85.04 0 85.04 0 99.21 0 113.39 0 127.56 0 141.73 0 155.91 0 170.08 0 184.25 0 198.43 0 212.6 0 226.77 14.17 226.77 28.35 226.77 42.52 226.77 56.69 226.77 70.87 226.77 85.04 226.77 99.21 226.77 113.39 226.77 127.56 226.77 141.73 226.77 155.91 226.77 170.08 226.77 170.08 212.6 170.08 198.43 170.08 184.25 170.08 170.08 170.08 155.91 170.08 141.73 170.08 127.56 170.08 113.39 170.08 99.21 170.08 85.04 170.08 70.87 170.08 56.69 170.08 42.52 170.08 28.35 170.08 14.17 170.08 0 155.91 0 141.73 0"/></g></g></svg>