<svg xmlns="http://www.w3.org/2000/svg" width="20mm" height="50mm" viewBox="0 0 56.69 141.73"><defs><style>.cls-1{fill:#7eb9e6;}</style></defs><title>AEROAsset 75L</title><g id="Layer_2" data-name="Layer 2"><g id="Layer_1-2" data-name="Layer 1"><polygon class="cls-1" points="28.35 0 14.17 0 0 0 0 14.17 0 28.35 0 42.52 0 56.69 0 70.87 0 85.04 0 99.21 0 113.39 0 127.56 0 141.73 14.17 141.73 28.35 141.73 42.52 141.73 56.69 141.73 56.69 127.56 56.69 113.39 56.69 99.21 56.69 85.04 56.69 70.87 56.69 56.69 56.69 42.52 56.69 28.35 56.69 14.17 56.69 0 42.52 0 28.35 0"/></g></g></svg>