<svg xmlns="http://www.w3.org/2000/svg" viewBox="0 0 113.39 170.08">
    <defs>
        <style>.cls-1{fill:#009640;}</style>
    </defs>
    <title>GREENAsset 172</title>
    <g id="Layer_2" data-name="Layer 2">
        <g id="Layer_1-2" data-name="Layer 1">
            <polygon class="cls-1"
                     points="113.39 28.35 113.39 14.17 113.39 0 99.21 0 70.87 0 56.69 0 56.69 14.17 56.69 28.35 42.52 28.35 14.17 28.35 0 28.35 0 42.52 0 70.87 0 99.22 0 113.39 14.17 113.39 28.35 113.39 28.35 127.56 28.35 155.91 28.35 170.08 42.52 170.08 70.87 170.08 85.04 170.08 85.04 155.91 85.04 127.56 85.04 113.39 99.22 113.39 113.39 113.39 113.39 99.22 113.39 70.87 113.39 42.52 113.39 28.35 113.39 28.35"/>
        </g>
    </g>
</svg>