<svg xmlns="http://www.w3.org/2000/svg" viewBox="0 0 198.43 226.77">
    <defs>
        <style>.cls-1{fill:#009640;}</style>
    </defs>
    <title>GREENAsset 164</title>
    <g id="Layer_2" data-name="Layer 2">
        <g id="Layer_1-2" data-name="Layer 1">
            <polygon class="cls-1"
                     points="184.25 0 155.91 0 127.56 0 113.39 0 113.39 14.17 113.39 42.52 113.39 56.69 127.56 56.69 141.73 56.69 141.73 70.87 141.73 99.21 141.73 113.39 127.56 113.39 99.21 113.39 70.87 113.39 56.69 113.39 56.69 99.21 56.69 85.04 42.52 85.04 14.17 85.04 0 85.04 0 99.21 0 127.56 0 155.91 0 170.08 14.17 170.08 42.52 170.08 70.87 170.08 85.04 170.08 85.04 184.25 85.04 212.6 85.04 226.77 99.21 226.77 127.56 226.77 141.73 226.77 141.73 212.6 141.73 184.25 141.73 170.08 155.91 170.08 184.25 170.08 198.43 170.08 198.43 155.91 198.43 127.56 198.43 99.21 198.43 70.87 198.43 42.52 198.43 14.17 198.43 0 184.25 0"/>
        </g>
    </g>
</svg>