<svg xmlns="http://www.w3.org/2000/svg" viewBox="0 0 170.08 141.73">
    <defs>
        <style>.cls-1{fill:#009640;}</style>
    </defs>
    <title>GREENAsset 168</title>
    <g id="Layer_2" data-name="Layer 2">
        <g id="Layer_1-2" data-name="Layer 1">
            <polygon class="cls-1"
                     points="155.91 0 127.56 0 113.39 0 113.39 14.17 113.39 28.35 99.21 28.35 70.87 28.35 56.69 28.35 56.69 14.17 56.69 0 42.52 0 14.17 0 0 0 0 14.17 0 42.52 0 70.87 0 85.04 14.17 85.04 42.52 85.04 56.69 85.04 56.69 85.04 56.69 99.21 56.69 127.56 56.69 141.73 70.87 141.73 99.21 141.73 113.39 141.73 113.39 127.56 113.39 99.21 113.39 85.04 113.39 85.04 127.56 85.04 155.91 85.04 170.08 85.04 170.08 70.87 170.08 42.52 170.08 14.17 170.08 0 155.91 0"/>
        </g>
    </g>
</svg>