<svg xmlns="http://www.w3.org/2000/svg" viewBox="0 0 226.77 226.77">
    <defs>
        <style>.cls-1{fill:#009640;}</style>
    </defs>
    <title>GREENAsset 146</title>
    <g id="Layer_2" data-name="Layer 2">
        <g id="Layer_1-2" data-name="Layer 1">
            <polygon class="cls-1"
                     points="212.6 0 184.25 0 155.91 0 127.56 0 113.39 0 99.21 0 70.87 0 42.52 0 14.17 0 0 0 0 14.17 0 42.52 0 56.69 0 56.69 0 70.87 0 99.21 0 113.39 0 127.56 0 141.73 0 155.91 0 170.08 14.17 170.08 42.52 170.08 70.87 170.08 99.21 170.08 113.39 170.08 113.39 170.08 113.39 184.25 113.39 212.6 113.39 226.77 127.56 226.77 155.91 226.77 170.08 226.77 170.08 212.6 170.08 184.25 170.08 170.08 170.08 170.08 184.25 170.08 212.6 170.08 226.77 170.08 226.77 155.91 226.77 141.73 226.77 127.56 226.77 113.39 226.77 99.21 226.77 70.87 226.77 42.52 226.77 14.17 226.77 0 212.6 0"/>
        </g>
    </g>
</svg>