<svg xmlns="http://www.w3.org/2000/svg" width="85.04" height="226.77" viewBox="0 0 85.04 226.77"><defs><style>.cls-1{fill:#e30613;}.cls-2{fill:#009640;}.cls-3{fill:#c9a3c8;}</style></defs><g id="Layer_2" data-name="Layer 2"><g id="Layer_1-2" data-name="Layer 1"><polygon class="cls-1" points="0 198.43 28.35 212.6 28.35 184.25 0 198.43"/><polygon class="cls-2" points="56.69 184.25 85.04 184.25 56.69 198.43 85.04 212.6 56.69 212.6 56.69 184.25"/><polygon class="cls-3" points="42.52 0 28.35 0 14.17 0 14.17 14.17 14.17 28.35 14.17 42.52 14.17 56.69 14.17 70.87 14.17 85.04 14.17 99.21 14.17 113.39 14.17 127.56 14.17 141.73 14.17 155.91 14.17 170.08 14.17 184.25 28.35 184.25 28.35 212.6 14.17 212.6 14.17 226.77 28.35 226.77 42.52 226.77 56.69 226.77 70.87 226.77 70.87 212.6 56.69 212.6 56.69 184.25 70.87 184.25 70.87 170.08 70.87 155.91 70.87 141.73 70.87 127.56 70.87 113.39 70.87 99.21 70.87 85.04 70.87 70.87 70.87 56.69 70.87 42.52 70.87 28.35 70.87 14.17 70.87 0 56.69 0 42.52 0"/></g></g></svg>