<svg xmlns="http://www.w3.org/2000/svg" viewBox="0 0 113.39 226.77">
    <defs>
        <style>.cls-1{fill:#f18700;}</style>
    </defs>
    <title>ORANGEAsset 132</title>
    <g id="Layer_2" data-name="Layer 2">
        <g id="Layer_1-2" data-name="Layer 1">
            <polygon class="cls-1"
                     points="70.87 0 42.52 0 14.17 0 0 0 0 14.17 0 42.52 0 70.87 0 99.21 0 113.39 0 127.56 0 155.91 0 184.25 0 212.6 0 226.77 14.17 226.77 42.52 226.77 70.87 226.77 99.21 226.77 113.39 226.77 113.39 212.6 113.39 184.25 113.39 155.91 113.39 127.56 113.39 99.21 113.39 70.87 113.39 42.52 113.39 14.17 113.39 0 99.21 0 70.87 0"/>
        </g>
    </g>
</svg>