<svg xmlns="http://www.w3.org/2000/svg" viewBox="0 0 170.08 198.43">
    <defs>
        <style>.cls-1{fill:#f18700;}</style>
    </defs>
    <title>ORANGEAsset 102</title>
    <g id="Layer_2" data-name="Layer 2">
        <g id="Layer_1-2" data-name="Layer 1">
            <polygon class="cls-1"
                     points="42.52 198.43 70.87 198.43 99.21 198.43 127.56 198.43 155.91 198.43 170.08 198.43 170.08 184.25 170.08 155.91 170.08 127.56 170.08 99.21 170.08 70.87 170.08 42.52 170.08 28.35 155.91 28.35 127.56 28.35 99.21 28.35 70.87 28.35 56.69 28.35 56.69 14.17 56.69 0 42.52 0 14.17 0 0 0 0 14.17 0 42.52 0 70.87 0 99.21 0 127.56 0 155.91 0 184.25 0 198.43 14.17 198.43 42.52 198.43"/>
        </g>
    </g>
</svg>