<svg xmlns="http://www.w3.org/2000/svg" viewBox="0 0 170.08 226.77">
    <defs>
        <style>.cls-1{fill:#f18700;}</style>
    </defs>
    <title>ORANGEAsset 121</title>
    <g id="Layer_2" data-name="Layer 2">
        <g id="Layer_1-2" data-name="Layer 1">
            <polygon class="cls-1"
                     points="127.56 85.04 113.39 85.04 113.39 70.87 113.39 42.52 113.39 14.17 113.39 0 99.21 0 70.87 0 42.52 0 14.17 0 0 0 0 14.17 0 42.52 0 70.87 0 99.21 0 113.39 0 127.56 0 155.91 0 184.25 0 212.6 0 226.77 14.17 226.77 42.52 226.77 70.87 226.77 85.04 226.77 85.04 226.77 99.21 226.77 127.56 226.77 155.91 226.77 170.08 226.77 170.08 212.6 170.08 184.25 170.08 155.91 170.08 127.56 170.08 99.21 170.08 85.04 155.91 85.04 127.56 85.04"/>
        </g>
    </g>
</svg>