<svg xmlns="http://www.w3.org/2000/svg" width="50mm" height="80mm" viewBox="0 0 141.73 226.77"><defs><style>.cls-1{fill:#7eb9e6;}</style></defs><title>AEROAsset 4L</title><g id="Layer_2" data-name="Layer 2"><g id="Layer_1-2" data-name="Layer 1"><polygon class="cls-1" points="113.39 0 99.21 0 85.04 0 85.04 14.17 85.04 28.35 85.04 42.52 85.04 56.69 85.04 70.87 85.04 85.04 85.04 99.21 85.04 113.39 85.04 127.56 85.04 141.73 85.04 155.91 85.04 170.08 70.87 170.08 56.69 170.08 42.52 170.08 28.35 170.08 14.17 170.08 0 170.08 0 184.25 0 198.43 0 212.6 0 226.77 14.17 226.77 28.35 226.77 42.52 226.77 56.69 226.77 70.87 226.77 85.04 226.77 99.21 226.77 113.39 226.77 127.56 226.77 141.73 226.77 141.73 212.6 141.73 198.43 141.73 184.25 141.73 170.08 141.73 155.91 141.73 141.73 141.73 127.56 141.73 113.39 141.73 99.21 141.73 85.04 141.73 70.87 141.73 56.69 141.73 42.52 141.73 28.35 141.73 14.17 141.73 0 127.56 0 113.39 0"/></g></g></svg>