<svg xmlns="http://www.w3.org/2000/svg" width="35mm" height="80mm" viewBox="0 0 99.21 226.77"><defs><style>.cls-1{fill:#009640;}.cls-2{fill:#ef7d19;}</style></defs><title>AEROAsset 191L</title><g id="Layer_2" data-name="Layer 2"><g id="Layer_1-2" data-name="Layer 1"><polygon class="cls-1" points="70.87 184.25 99.21 184.25 70.87 198.43 99.21 212.6 70.87 212.6 70.87 184.25"/><polygon class="cls-2" points="56.69 0 42.52 0 28.35 0 14.17 0 0 0 0 14.17 0 28.35 0 42.52 0 56.69 14.17 56.69 28.35 56.69 28.35 70.87 28.35 85.04 28.35 99.21 28.35 113.39 28.35 127.56 28.35 141.73 28.35 155.91 28.35 170.08 28.35 184.25 28.35 198.43 28.35 212.6 28.35 226.77 42.52 226.77 56.69 226.77 70.87 226.77 85.04 226.77 85.04 212.6 70.87 212.6 70.87 184.25 85.04 184.25 85.04 170.08 85.04 155.91 85.04 141.73 85.04 127.56 85.04 113.39 85.04 99.21 85.04 85.04 85.04 70.87 85.04 56.69 85.04 42.52 85.04 28.35 85.04 14.17 85.04 0 70.87 0 56.69 0"/></g></g></svg>