<svg xmlns="http://www.w3.org/2000/svg" width="60mm" height="40mm" viewBox="0 0 170.08 113.39"><defs><style>.cls-1{fill:#009640;}.cls-2{fill:#ef7d19;}</style></defs><title>AEROAsset 239L</title><g id="Layer_2" data-name="Layer 2"><g id="Layer_1-2" data-name="Layer 1"><polygon class="cls-1" points="42.52 70.87 70.87 70.87 42.52 85.04 70.87 99.21 42.52 99.21 42.52 70.87"/><polygon class="cls-2" points="141.73 0 127.56 0 113.39 0 99.21 0 85.04 0 70.87 0 56.69 0 42.52 0 28.35 0 14.17 0 0 0 0 14.17 0 28.35 0 42.52 0 56.69 0 70.87 0 85.04 0 99.21 0 113.39 14.17 113.39 28.35 113.39 42.52 113.39 56.69 113.39 56.69 99.21 42.52 99.21 42.52 70.87 56.69 70.87 56.69 56.69 70.87 56.69 85.04 56.69 99.21 56.69 113.39 56.69 127.56 56.69 141.73 56.69 155.91 56.69 170.08 56.69 170.08 42.52 170.08 28.35 170.08 14.17 170.08 0 155.91 0 141.73 0"/></g></g></svg>