<svg xmlns="http://www.w3.org/2000/svg" width="65mm" height="50mm" viewBox="0 0 184.25 141.73"><defs><style>.cls-1{fill:#009640;}.cls-2{fill:#ef7d19;}</style></defs><title>AEROAsset 221L</title><g id="Layer_2" data-name="Layer 2"><g id="Layer_1-2" data-name="Layer 1"><polygon class="cls-1" points="155.91 99.21 184.25 99.21 155.91 113.39 184.25 127.56 155.91 127.56 155.91 99.21"/><polygon class="cls-2" points="141.73 0 127.56 0 113.39 0 99.21 0 85.04 0 70.87 0 56.69 0 42.52 0 28.35 0 14.17 0 0 0 0 14.17 0 28.35 0 42.52 0 56.69 14.17 56.69 28.35 56.69 42.52 56.69 56.69 56.69 70.87 56.69 85.04 56.69 99.21 56.69 113.39 56.69 113.39 70.87 113.39 85.04 113.39 99.21 113.39 113.39 113.39 127.56 113.39 141.73 127.56 141.73 141.73 141.73 155.91 141.73 170.08 141.73 170.08 127.56 155.91 127.56 155.91 99.21 170.08 99.21 170.08 85.04 170.08 70.87 170.08 56.69 170.08 42.52 170.08 28.35 170.08 14.17 170.08 0 155.91 0 141.73 0"/></g></g></svg>