<svg xmlns="http://www.w3.org/2000/svg" width="75mm" height="40mm" viewBox="0 0 212.6 113.39"><defs><style>.cls-1{fill:#009640;}.cls-2{fill:#ef7d19;}</style></defs><title>AEROAsset 235L</title><g id="Layer_2" data-name="Layer 2"><g id="Layer_1-2" data-name="Layer 1"><polygon class="cls-1" points="184.25 70.87 212.6 70.87 184.25 85.04 212.6 99.21 184.25 99.21 184.25 70.87"/><polygon class="cls-2" points="170.08 0 155.91 0 141.73 0 127.56 0 113.39 0 99.21 0 85.04 0 70.87 0 56.69 0 42.52 0 28.35 0 14.17 0 0 0 0 14.17 0 28.35 0 42.52 0 56.69 14.17 56.69 28.35 56.69 42.52 56.69 56.69 56.69 70.87 56.69 85.04 56.69 99.21 56.69 113.39 56.69 127.56 56.69 141.73 56.69 141.73 70.87 141.73 85.04 141.73 99.21 141.73 113.39 155.91 113.39 170.08 113.39 184.25 113.39 198.43 113.39 198.43 99.21 184.25 99.21 184.25 70.87 198.43 70.87 198.43 56.69 198.43 42.52 198.43 28.35 198.43 14.17 198.43 0 184.25 0 170.08 0"/></g></g></svg>