<svg xmlns="http://www.w3.org/2000/svg" width="50mm" height="80mm" viewBox="0 0 141.73 226.77"><defs><style>.cls-1{fill:#009640;}.cls-2{fill:#ef7d19;}</style></defs><title>AEROAsset 186L</title><g id="Layer_2" data-name="Layer 2"><g id="Layer_1-2" data-name="Layer 1"><polygon class="cls-1" points="42.52 184.25 70.87 184.25 42.52 198.43 70.87 212.6 42.52 212.6 42.52 184.25"/><polygon class="cls-2" points="113.39 0 99.21 0 85.04 0 70.87 0 56.69 0 42.52 0 28.35 0 14.17 0 0 0 0 14.17 0 28.35 0 42.52 0 56.69 0 70.87 0 85.04 0 99.21 0 113.39 0 127.56 0 141.73 0 155.91 0 170.08 0 184.25 0 198.43 0 212.6 0 226.77 14.17 226.77 28.35 226.77 42.52 226.77 56.69 226.77 56.69 212.6 42.52 212.6 42.52 184.25 56.69 184.25 56.69 170.08 56.69 155.91 56.69 141.73 56.69 127.56 56.69 113.39 56.69 99.21 56.69 85.04 56.69 70.87 56.69 56.69 70.87 56.69 85.04 56.69 99.21 56.69 113.39 56.69 127.56 56.69 127.56 42.52 127.56 14.17 127.56 14.17 127.56 28.35 127.56 42.52 127.56 56.69 141.73 56.69 141.73 42.52 141.73 28.35 141.73 14.17 141.73 0 127.56 0 113.39 0"/></g></g></svg>