<svg xmlns="http://www.w3.org/2000/svg" width="35mm" height="50mm" viewBox="0 0 99.21 141.73"><defs><style>.cls-1{fill:#009640;}.cls-2{fill:#ef7d19;}</style></defs><title>AEROAsset 224L</title><g id="Layer_2" data-name="Layer 2"><g id="Layer_1-2" data-name="Layer 1"><polygon class="cls-1" points="70.87 99.21 99.21 99.21 70.87 113.39 99.21 127.56 70.87 127.56 70.87 99.21"/><polygon class="cls-2" points="56.69 0 42.52 0 28.35 0 14.17 0 0 0 0 14.17 0 28.35 0 42.52 0 56.69 14.17 56.69 28.35 56.69 28.35 70.87 28.35 85.04 28.35 99.21 28.35 113.39 28.35 127.56 28.35 141.73 42.52 141.73 56.69 141.73 70.87 141.73 85.04 141.73 85.04 127.56 70.87 127.56 70.87 99.21 85.04 99.21 85.04 85.04 85.04 70.87 85.04 56.69 85.04 42.52 85.04 28.35 85.04 14.17 85.04 0 70.87 0 56.69 0"/></g></g></svg>