<svg xmlns="http://www.w3.org/2000/svg" width="30mm" height="60mm" viewBox="0 0 85.04 170.08"><defs><style>.cls-1{fill:#009640;}.cls-2{fill:#ef7d19;}</style></defs><title>AEROAsset 218L</title><g id="Layer_2" data-name="Layer 2"><g id="Layer_1-2" data-name="Layer 1"><polygon class="cls-1" points="42.52 127.56 70.87 127.56 42.52 141.73 70.87 155.91 42.52 155.91 42.52 127.56"/><polygon class="cls-2" points="56.69 0 42.52 0 28.35 0 14.17 0 0 0 0 14.17 0 28.35 0 42.52 0 56.69 0 70.87 0 85.04 0 99.21 0 113.39 0 127.56 0 141.73 0 155.91 0 170.08 14.17 170.08 28.35 170.08 42.52 170.08 56.69 170.08 56.69 155.91 42.52 155.91 42.52 127.56 56.69 127.56 56.69 113.39 56.69 99.21 56.69 85.04 56.69 70.87 56.69 56.69 70.87 56.69 85.04 56.69 85.04 42.52 85.04 28.35 85.04 14.17 85.04 0 70.87 0 56.69 0"/></g></g></svg>