<svg xmlns="http://www.w3.org/2000/svg" width="45mm" height="40mm" viewBox="0 0 127.56 113.39"><defs><style>.cls-1{fill:#009640;}.cls-2{fill:#ef7d19;}</style></defs><title>AEROAsset 238L</title><g id="Layer_2" data-name="Layer 2"><g id="Layer_1-2" data-name="Layer 1"><polygon class="cls-1" points="99.21 70.87 127.56 70.87 99.21 85.04 127.56 99.21 99.21 99.21 99.21 70.87"/><polygon class="cls-2" points="85.04 0 70.87 0 56.69 0 42.52 0 28.35 0 14.17 0 0 0 0 14.17 0 28.35 0 42.52 0 56.69 14.17 56.69 28.35 56.69 42.52 56.69 56.69 56.69 56.69 70.87 56.69 85.04 56.69 99.21 56.69 113.39 70.87 113.39 85.04 113.39 99.21 113.39 113.39 113.39 113.39 99.21 99.21 99.21 99.21 70.87 113.39 70.87 113.39 56.69 113.39 42.52 113.39 28.35 113.39 14.17 113.39 0 99.21 0 85.04 0"/></g></g></svg>