<svg xmlns="http://www.w3.org/2000/svg" viewBox="0 0 198.43 226.77">
    <defs>
        <style>.cls-1{fill:#524294;}</style>
    </defs>
    <title>PURPLEAsset 19</title>
    <g id="Layer_2" data-name="Layer 2">
        <g id="Layer_1-2" data-name="Layer 1">
            <polygon class="cls-1"
                     points="155.91 0 141.73 0 127.56 0 99.21 0 70.87 0 42.52 0 28.35 0 28.35 14.17 28.35 42.52 28.35 70.87 28.35 99.21 28.35 127.56 28.35 155.91 28.35 170.08 14.17 170.08 0 170.08 0 184.25 0 212.6 0 226.77 14.17 226.77 42.52 226.77 70.87 226.77 85.04 226.77 99.21 226.77 127.56 226.77 155.91 226.77 184.25 226.77 198.43 226.77 198.43 212.6 198.43 184.25 198.43 155.91 198.43 127.56 198.43 99.21 198.43 70.87 198.43 42.52 198.43 14.17 198.43 0 184.25 0 155.91 0"/>
        </g>
    </g>
</svg>