<svg xmlns="http://www.w3.org/2000/svg" viewBox="0 0 226.77 226.77">
    <defs>
        <style>.cls-1{fill:#009640;}</style>
    </defs>
    <title>GREENAsset 153</title>
    <g id="Layer_2" data-name="Layer 2">
        <g id="Layer_1-2" data-name="Layer 1">
            <polygon class="cls-1"
                     points="184.25 0 155.91 0 127.56 0 113.39 0 113.39 14.17 113.39 42.52 113.39 56.69 127.56 56.69 155.91 56.69 170.08 56.69 170.08 70.87 170.08 99.21 170.08 113.39 155.91 113.39 127.56 113.39 99.21 113.39 70.87 113.39 56.69 113.39 56.69 99.21 56.69 85.04 42.52 85.04 14.17 85.04 0 85.04 0 99.21 0 127.56 0 155.91 0 170.08 14.17 170.08 42.52 170.08 70.87 170.08 99.21 170.08 113.39 170.08 113.39 184.25 113.39 212.6 113.39 226.77 127.56 226.77 155.91 226.77 170.08 226.77 170.08 212.6 170.08 184.25 170.08 170.08 184.25 170.08 212.6 170.08 226.77 170.08 226.77 155.91 226.77 127.56 226.77 99.21 226.77 70.87 226.77 42.52 226.77 14.17 226.77 0 212.6 0 184.25 0"/>
        </g>
    </g>
</svg>