<svg xmlns="http://www.w3.org/2000/svg" viewBox="0 0 170.08 170.08">
    <defs>
        <style>.cls-1{fill:#f18700;}</style>
    </defs>
    <title>ORANGEAsset 103</title>
    <g id="Layer_2" data-name="Layer 2">
        <g id="Layer_1-2" data-name="Layer 1">
            <polygon class="cls-1"
                     points="42.52 170.08 70.87 170.08 99.21 170.08 127.56 170.08 155.91 170.08 170.08 170.08 170.08 155.91 170.08 127.56 170.08 99.21 170.08 70.87 170.08 42.52 170.08 14.17 170.08 0 155.91 0 127.56 0 99.21 0 70.87 0 56.69 0 42.52 0 14.17 0 0 0 0 14.17 0 42.52 0 70.87 0 99.21 0 127.56 0 155.91 0 170.08 14.17 170.08 42.52 170.08"/>
        </g>
    </g>
</svg>