<svg xmlns="http://www.w3.org/2000/svg" width="184.25" height="226.77" viewBox="0 0 184.25 226.77"><defs><style>.cls-1{fill:#de5d83;}.cls-2{fill:#009640;}</style></defs><g id="Layer_2" data-name="Layer 2"><g id="Layer_1-2" data-name="Layer 1"><polygon class="cls-1" points="155.91 0 141.73 0 127.56 0 113.39 0 99.21 0 85.04 0 70.87 0 56.69 0 42.52 0 28.35 0 14.17 0 0 0 0 14.17 0 28.35 0 42.52 0 56.69 0 70.87 0 85.04 0 99.21 0 113.39 0 127.56 0 141.73 0 155.91 0 170.08 14.17 170.08 28.35 170.08 42.52 170.08 56.69 170.08 56.69 184.25 56.69 198.43 56.69 212.6 56.69 226.77 70.87 226.77 85.04 226.77 99.21 226.77 113.39 226.77 113.39 212.6 113.39 198.43 113.39 184.25 113.39 170.08 127.56 170.08 141.73 170.08 155.91 170.08 170.08 170.08 170.08 155.91 155.91 155.91 155.91 155.91 155.91 127.56 170.08 127.56 170.08 113.39 170.08 99.21 170.08 85.04 170.08 70.87 170.08 56.69 170.08 42.52 170.08 28.35 170.08 14.17 170.08 0 155.91 0"/><polygon class="cls-2" points="155.91 127.56 184.25 127.56 155.91 141.73 184.25 155.91 155.91 155.91 155.91 127.56"/></g></g></svg>