<svg xmlns="http://www.w3.org/2000/svg" width="212.6" height="226.77" viewBox="0 0 212.6 226.77"><defs><style>.cls-1{fill:#de5d83;}.cls-2{fill:#009640;}</style></defs><g id="Layer_2" data-name="Layer 2"><g id="Layer_1-2" data-name="Layer 1"><polygon class="cls-1" points="184.25 85.04 170.08 85.04 155.91 85.04 141.73 85.04 141.73 99.21 141.73 113.39 127.56 113.39 113.39 113.39 99.21 113.39 85.04 113.39 70.87 113.39 56.69 113.39 56.69 99.21 56.69 85.04 56.69 70.87 56.69 56.69 56.69 42.52 56.69 28.35 56.69 14.17 56.69 0 42.52 0 28.35 0 14.17 0 0 0 0 14.17 0 28.35 0 42.52 0 56.69 0 70.87 0 85.04 0 99.21 0 113.39 0 127.56 0 141.73 0 155.91 0 170.08 14.17 170.08 28.35 170.08 42.52 170.08 56.69 170.08 56.69 184.25 56.69 198.43 56.69 212.6 56.69 226.77 70.87 226.77 85.04 226.77 99.21 226.77 113.39 226.77 113.39 212.6 113.39 198.43 113.39 184.25 113.39 170.08 127.56 170.08 141.73 170.08 155.91 170.08 170.08 170.08 184.25 170.08 198.43 170.08 198.43 155.91 184.25 155.91 184.25 155.91 184.25 127.56 198.43 127.56 198.43 113.39 198.43 99.21 198.43 85.04 184.25 85.04"/><polygon class="cls-2" points="184.25 127.56 212.6 127.56 184.25 141.73 212.6 155.91 184.25 155.91 184.25 127.56"/></g></g></svg>