<svg xmlns="http://www.w3.org/2000/svg" viewBox="0 0 198.43 198.43">
    <defs>
        <style>.cls-1{fill:#009640;}</style>
    </defs>
    <title>GREENAsset 139</title>
    <g id="Layer_2" data-name="Layer 2">
        <g id="Layer_1-2" data-name="Layer 1">
            <polygon class="cls-1"
                     points="155.91 0 141.73 0 141.73 14.17 141.73 42.52 141.73 70.87 141.73 85.04 127.56 85.04 99.21 85.04 70.87 85.04 56.69 85.04 56.69 70.87 56.69 56.69 42.52 56.69 14.17 56.69 0 56.69 0 70.87 0 99.21 0 127.56 0 141.73 14.17 141.73 42.52 141.73 70.87 141.73 85.04 141.73 85.04 155.91 85.04 184.25 85.04 198.43 99.21 198.43 127.56 198.43 141.73 198.43 141.73 184.25 141.73 155.91 141.73 141.73 155.91 141.73 184.25 141.73 198.43 141.73 198.43 127.56 198.43 99.21 198.43 70.87 198.43 42.52 198.43 14.17 198.43 0 184.25 0 155.91 0"/>
        </g>
    </g>
</svg>