<svg xmlns="http://www.w3.org/2000/svg" viewBox="0 0 198.43 170.08">
    <defs>
        <style>.cls-1{fill:#009640;}</style>
    </defs>
    <title>GREENAsset 140</title>
    <g id="Layer_2" data-name="Layer 2">
        <g id="Layer_1-2" data-name="Layer 1">
            <polygon class="cls-1"
                     points="155.91 0 141.73 0 141.73 14.17 141.73 42.52 141.73 56.69 127.56 56.69 99.21 56.69 70.87 56.69 56.69 56.69 56.69 42.52 56.69 28.35 42.52 28.35 14.17 28.35 0 28.35 0 42.52 0 70.87 0 99.21 0 113.39 14.17 113.39 42.52 113.39 70.87 113.39 85.04 113.39 85.04 127.56 85.04 155.91 85.04 170.08 99.21 170.08 127.56 170.08 141.73 170.08 141.73 155.91 141.73 127.56 141.73 113.39 155.91 113.39 184.25 113.39 198.43 113.39 198.43 99.21 198.43 70.87 198.43 42.52 198.43 14.17 198.43 0 184.25 0 155.91 0"/>
        </g>
    </g>
</svg>