<svg xmlns="http://www.w3.org/2000/svg" viewBox="0 0 226.77 198.43">
    <defs>
        <style>.cls-1{fill:#009640;}</style>
    </defs>
    <title>GREENAsset 156</title>
    <g id="Layer_2" data-name="Layer 2">
        <g id="Layer_1-2" data-name="Layer 1">
            <polygon class="cls-1"
                     points="184.25 0 170.08 0 170.08 14.17 170.08 42.52 170.08 70.87 170.08 85.04 155.91 85.04 127.56 85.04 99.21 85.04 70.87 85.04 56.69 85.04 56.69 70.87 56.69 56.69 42.52 56.69 14.17 56.69 0 56.69 0 70.87 0 99.21 0 127.56 0 141.73 14.17 141.73 42.52 141.73 70.87 141.73 99.21 141.73 113.39 141.73 113.39 155.91 113.39 184.25 113.39 198.43 127.56 198.43 155.91 198.43 170.08 198.43 170.08 184.25 170.08 155.91 170.08 141.73 184.25 141.73 212.6 141.73 226.77 141.73 226.77 127.56 226.77 99.21 226.77 70.87 226.77 42.52 226.77 14.17 226.77 0 212.6 0 184.25 0"/>
        </g>
    </g>
</svg>