<svg xmlns="http://www.w3.org/2000/svg" viewBox="0 0 170.08 226.77">
    <defs>
        <style>.cls-1{fill:#009640;}</style>
    </defs>
    <title>GREENAsset 143</title>
    <g id="Layer_2" data-name="Layer 2">
        <g id="Layer_1-2" data-name="Layer 1">
            <polygon class="cls-1"
                     points="155.91 0 127.56 0 99.21 0 70.87 0 56.69 0 56.69 14.17 56.69 28.35 42.52 28.35 14.17 28.35 0 28.35 0 42.52 0 70.87 0 99.21 0 127.56 0 155.91 0 170.08 14.17 170.08 42.52 170.08 56.69 170.08 56.69 170.08 56.69 184.25 56.69 212.6 56.69 226.77 70.87 226.77 99.21 226.77 113.39 226.77 113.39 212.6 113.39 184.25 113.39 170.08 113.39 170.08 127.56 170.08 155.91 170.08 170.08 170.08 170.08 155.91 170.08 127.56 170.08 99.21 170.08 70.87 170.08 42.52 170.08 14.17 170.08 0 155.91 0"/>
        </g>
    </g>
</svg>