<svg xmlns="http://www.w3.org/2000/svg" width="127.56" height="226.77" viewBox="0 0 127.56 226.77"><defs><style>.cls-1{fill:#e30613;}.cls-2{fill:#009640;}.cls-3{fill:#c9a3c8;}</style></defs><g id="Layer_2" data-name="Layer 2"><g id="Layer_1-2" data-name="Layer 1"><polygon class="cls-1" points="42.52 198.43 70.87 212.6 70.87 184.25 42.52 198.43"/><polygon class="cls-2" points="99.21 184.25 127.56 184.25 99.21 198.43 127.56 212.6 99.21 212.6 99.21 184.25"/><polygon class="cls-3" points="85.04 0 70.87 0 56.69 0 42.52 0 28.35 0 14.17 0 0 0 0 14.17 0 28.35 0 42.52 0 56.69 0 70.87 0 85.04 0 99.21 0 113.39 0 127.56 0 141.73 0 155.91 0 170.08 14.17 170.08 28.35 170.08 42.52 170.08 56.69 170.08 56.69 184.25 70.87 184.25 70.87 212.6 56.69 212.6 56.69 226.77 70.87 226.77 85.04 226.77 99.21 226.77 113.39 226.77 113.39 212.6 99.21 212.6 99.21 184.25 113.39 184.25 113.39 170.08 113.39 155.91 113.39 141.73 113.39 127.56 113.39 113.39 113.39 99.21 113.39 85.04 113.39 70.87 113.39 56.69 113.39 42.52 113.39 28.35 113.39 14.17 113.39 0 99.21 0 85.04 0"/></g></g></svg>