<svg xmlns="http://www.w3.org/2000/svg" width="170.08" height="226.77" viewBox="0 0 170.08 226.77"><defs><style>.cls-1{fill:#e30613;}.cls-2{fill:#009640;}.cls-3{fill:#c9a3c8;}</style></defs><g id="Layer_2" data-name="Layer 2"><g id="Layer_1-2" data-name="Layer 1"><polygon class="cls-1" points="0 198.43 28.35 212.6 28.35 184.25 0 198.43"/><polygon class="cls-2" points="141.73 184.25 170.08 184.25 141.73 198.43 170.08 212.6 141.73 212.6 141.73 184.25"/><polygon class="cls-3" points="141.73 0 127.56 0 113.39 0 99.21 0 99.21 14.17 99.21 28.35 99.21 42.52 99.21 56.69 99.21 70.87 99.21 85.04 99.21 99.21 99.21 113.39 99.21 127.56 99.21 141.73 99.21 155.91 99.21 170.08 85.04 170.08 70.87 170.08 56.69 170.08 42.52 170.08 28.35 170.08 14.17 170.08 14.17 184.25 28.35 184.25 28.35 212.6 14.17 212.6 14.17 226.77 28.35 226.77 42.52 226.77 56.69 226.77 70.87 226.77 85.04 226.77 99.21 226.77 113.39 226.77 127.56 226.77 141.73 226.77 155.91 226.77 155.91 212.6 141.73 212.6 141.73 184.25 155.91 184.25 155.91 170.08 155.91 155.91 155.91 141.73 155.91 127.56 155.91 113.39 155.91 99.21 155.91 85.04 155.91 70.87 155.91 56.69 155.91 42.52 155.91 28.35 155.91 14.17 155.91 0 141.73 0"/></g></g></svg>