<svg xmlns="http://www.w3.org/2000/svg" width="85.04" height="141.73" viewBox="0 0 85.04 141.73"><defs><style>.cls-1{fill:#e30613;}.cls-2{fill:#009640;}.cls-3{fill:#c9a3c8;}</style></defs><g id="Layer_2" data-name="Layer 2"><g id="Layer_1-2" data-name="Layer 1"><polygon class="cls-1" points="0 113.39 28.35 127.56 28.35 99.21 0 113.39"/><polygon class="cls-2" points="56.69 99.21 85.04 99.21 56.69 113.39 85.04 127.56 56.69 127.56 56.69 99.21"/><polygon class="cls-3" points="42.52 0 28.35 0 14.17 0 14.17 14.17 14.17 28.35 14.17 42.52 14.17 56.69 14.17 70.87 14.17 85.04 14.17 99.21 28.35 99.21 28.35 127.56 14.17 127.56 14.17 141.73 28.35 141.73 42.52 141.73 56.69 141.73 70.87 141.73 70.87 127.56 56.69 127.56 56.69 99.21 70.87 99.21 70.87 85.04 70.87 70.87 70.87 56.69 70.87 42.52 70.87 28.35 70.87 14.17 70.87 0 56.69 0 42.52 0"/></g></g></svg>