<svg xmlns="http://www.w3.org/2000/svg" width="141.73" height="226.77" viewBox="0 0 141.73 226.77"><defs><style>.cls-1{fill:#e30613;}.cls-2{fill:#009640;}.cls-3{fill:#c9a3c8;}</style></defs><g id="Layer_2" data-name="Layer 2"><g id="Layer_1-2" data-name="Layer 1"><polygon class="cls-1" points="0 113.39 28.35 127.56 28.35 99.21 0 113.39"/><polygon class="cls-2" points="113.39 184.25 141.73 184.25 113.39 198.43 141.73 212.6 113.39 212.6 113.39 184.25"/><polygon class="cls-3" points="99.21 0 85.04 0 70.87 0 56.69 0 42.52 0 28.35 0 14.17 0 14.17 14.17 14.17 28.35 14.17 42.52 14.17 56.69 14.17 70.87 14.17 85.04 14.17 99.21 28.35 99.21 28.35 127.56 14.17 127.56 14.17 141.73 28.35 141.73 42.52 141.73 56.69 141.73 70.87 141.73 70.87 155.91 70.87 170.08 70.87 184.25 70.87 198.43 70.87 212.6 70.87 226.77 85.04 226.77 99.21 226.77 113.39 226.77 127.56 226.77 127.56 212.6 113.39 212.6 113.39 184.25 127.56 184.25 127.56 170.08 127.56 155.91 127.56 141.73 127.56 127.56 127.56 113.39 127.56 99.21 127.56 85.04 127.56 70.87 127.56 56.69 127.56 42.52 127.56 28.35 127.56 14.17 127.56 0 113.39 0 99.21 0"/></g></g></svg>