<svg xmlns="http://www.w3.org/2000/svg" width="113.39" height="226.77" viewBox="0 0 113.39 226.77"><defs><style>.cls-1{fill:#e30613;}.cls-2{fill:#009640;}.cls-3{fill:#c9a3c8;}</style></defs><g id="Layer_2" data-name="Layer 2"><g id="Layer_1-2" data-name="Layer 1"><polygon class="cls-1" points="0 198.43 28.35 212.6 28.35 184.25 0 198.43"/><polygon class="cls-2" points="85.04 184.25 113.39 184.25 85.04 198.43 113.39 212.6 85.04 212.6 85.04 184.25"/><polygon class="cls-3" points="70.87 0 56.69 0 42.52 0 42.52 14.17 42.52 28.35 42.52 42.52 42.52 56.69 42.52 70.87 42.52 85.04 42.52 99.21 42.52 113.39 42.52 127.56 42.52 141.73 42.52 155.91 42.52 170.08 28.35 170.08 14.17 170.08 14.17 184.25 28.35 184.25 28.35 212.6 14.17 212.6 14.17 226.77 28.35 226.77 42.52 226.77 56.69 226.77 70.87 226.77 85.04 226.77 99.21 226.77 99.21 212.6 85.04 212.6 85.04 184.25 99.21 184.25 99.21 170.08 99.21 155.91 99.21 141.73 99.21 127.56 99.21 113.39 99.21 99.21 99.21 85.04 99.21 70.87 99.21 56.69 99.21 42.52 99.21 28.35 99.21 14.17 99.21 0 85.04 0 70.87 0"/></g></g></svg>