<svg xmlns="http://www.w3.org/2000/svg" width="50mm" height="60mm" viewBox="0 0 141.73 170.08"><defs><style>.cls-1{fill:#6599cc;}</style></defs><title>AEROAsset 277L</title><g id="Layer_2" data-name="Layer 2"><g id="Layer_1-2" data-name="Layer 1"><polygon class="cls-1" points="113.39 0 99.21 0 85.04 0 85.04 14.17 85.04 14.17 85.04 28.35 85.04 42.52 85.04 56.69 70.87 56.69 56.69 56.69 42.52 56.69 28.35 56.69 14.17 56.69 0 56.69 0 70.87 0 85.04 0 99.21 0 113.39 0 127.56 0 141.73 0 155.91 0 170.08 14.17 170.08 28.35 170.08 42.52 170.08 56.69 170.08 70.87 170.08 85.04 170.08 99.21 170.08 113.39 170.08 127.56 170.08 141.73 170.08 141.73 155.91 141.73 141.73 141.73 127.56 141.73 113.39 141.73 99.21 141.73 85.04 141.73 70.87 141.73 56.69 141.73 42.52 141.73 28.35 141.73 14.17 141.73 0 127.56 0 113.39 0"/></g></g></svg>