<svg xmlns="http://www.w3.org/2000/svg" width="50mm" height="40mm" viewBox="0 0 141.73 113.39"><defs><style>.cls-1{fill:#6599cc;}</style></defs><title>AEROAsset 278L</title><g id="Layer_2" data-name="Layer 2"><g id="Layer_1-2" data-name="Layer 1"><polygon class="cls-1" points="113.39 0 99.21 0 85.04 0 70.87 0 56.69 0 42.52 0 28.35 0 14.17 0 0 0 0 14.17 0 28.35 0 42.52 0 56.69 0 70.87 0 85.04 0 99.21 0 113.39 14.17 113.39 28.35 113.39 42.52 113.39 56.69 113.39 70.87 113.39 85.04 113.39 99.21 113.39 113.39 113.39 127.56 113.39 141.73 113.39 141.73 99.21 141.73 85.04 141.73 70.87 141.73 56.69 141.73 42.52 141.73 28.35 141.73 14.17 141.73 0 127.56 0 113.39 0"/></g></g></svg>