<svg xmlns="http://www.w3.org/2000/svg" width="50mm" height="70mm" viewBox="0 0 141.73 198.43"><defs><style>.cls-1{fill:#6599cc;}</style></defs><title>AEROAsset 276L</title><g id="Layer_2" data-name="Layer 2"><g id="Layer_1-2" data-name="Layer 1"><polygon class="cls-1" points="113.39 0 99.21 0 85.04 0 85.04 14.17 85.04 28.35 85.04 42.52 85.04 56.69 85.04 70.87 85.04 85.04 70.87 85.04 56.69 85.04 42.52 85.04 28.35 85.04 14.17 85.04 0 85.04 0 99.21 0 113.39 0 127.56 0 141.73 0 155.91 0 170.08 0 184.25 0 198.43 14.17 198.43 28.35 198.43 42.52 198.43 56.69 198.43 70.87 198.43 85.04 198.43 99.21 198.43 113.39 198.43 127.56 198.43 141.73 198.43 141.73 184.25 141.73 170.08 141.73 155.91 141.73 141.73 141.73 127.56 141.73 113.39 141.73 99.21 141.73 85.04 141.73 70.87 141.73 56.69 141.73 42.52 141.73 28.35 141.73 14.17 141.73 0 127.56 0 113.39 0"/></g></g></svg>