<svg xmlns="http://www.w3.org/2000/svg" width="40mm" height="70mm" viewBox="0 0 113.39 198.43"><defs><style>.cls-1{fill:#6599cc;}</style></defs><title>AEROAsset 267L</title><g id="Layer_2" data-name="Layer 2"><g id="Layer_1-2" data-name="Layer 1"><polygon class="cls-1" points="85.04 0 70.87 0 56.69 0 56.69 14.17 56.69 28.35 56.69 42.52 56.69 56.69 42.52 56.69 28.35 56.69 14.17 56.69 0 56.69 0 70.87 0 85.04 0 99.21 0 113.39 0 127.56 0 141.73 0 155.91 0 170.08 0 184.25 0 198.43 14.17 198.43 28.35 198.43 42.52 198.43 56.69 198.43 70.87 198.43 85.04 198.43 99.21 198.43 113.39 198.43 113.39 184.25 113.39 170.08 113.39 155.91 113.39 141.73 113.39 127.56 113.39 113.39 113.39 99.21 113.39 85.04 113.39 70.87 113.39 56.69 113.39 42.52 113.39 28.35 113.39 14.17 113.39 0 99.21 0 85.04 0"/></g></g></svg>