<svg xmlns="http://www.w3.org/2000/svg" width="240.94" height="198.43" viewBox="0 0 240.94 198.43"><defs><style>.cls-1{fill:#de5d83;}.cls-2{fill:#009640;}</style></defs><g id="Layer_2" data-name="Layer 2"><g id="Layer_1-2" data-name="Layer 1"><polygon class="cls-1" points="212.6 56.69 198.43 56.69 184.25 56.69 170.08 56.69 170.08 70.87 170.08 85.04 155.91 85.04 141.73 85.04 127.56 85.04 113.39 85.04 99.21 85.04 85.04 85.04 70.87 85.04 56.69 85.04 56.69 70.87 56.69 56.69 56.69 42.52 56.69 28.35 56.69 14.17 56.69 0 42.52 0 28.35 0 14.17 0 0 0 0 14.17 0 28.35 0 42.52 0 56.69 0 70.87 0 85.04 0 99.21 0 113.39 0 127.56 0 141.73 14.17 141.73 28.35 141.73 42.52 141.73 56.69 141.73 56.69 155.91 56.69 170.08 56.69 184.25 56.69 198.43 70.87 198.43 85.04 198.43 99.21 198.43 113.39 198.43 113.39 184.25 113.39 170.08 113.39 155.91 113.39 141.73 127.56 141.73 141.73 141.73 155.91 141.73 170.08 141.73 184.25 141.73 198.43 141.73 212.6 141.73 226.77 141.73 226.77 127.56 212.6 127.56 212.6 127.56 212.6 99.21 226.77 99.21 226.77 85.04 226.77 70.87 226.77 56.69 212.6 56.69"/><polygon class="cls-2" points="212.6 99.21 240.94 99.21 212.6 113.39 240.94 127.56 212.6 127.56 212.6 99.21"/></g></g></svg>