<svg xmlns="http://www.w3.org/2000/svg" viewBox="0 0 198.43 226.77">
    <defs>
        <style>.cls-1{fill:#f18700;}</style>
    </defs>
    <title>ORANGEAsset 96</title>
    <g id="Layer_2" data-name="Layer 2">
        <g id="Layer_1-2" data-name="Layer 1">
            <polygon class="cls-1"
                     points="42.52 226.77 70.87 226.77 99.21 226.77 127.56 226.77 155.91 226.77 170.08 226.77 170.08 212.6 170.08 184.25 170.08 155.91 170.08 127.56 170.08 99.21 170.08 70.87 170.08 56.69 184.25 56.69 198.43 56.69 198.43 42.52 198.43 14.17 198.43 0 184.25 0 155.91 0 127.56 0 99.21 0 70.87 0 42.52 0 14.17 0 0 0 0 14.17 0 42.52 0 70.87 0 99.21 0 127.56 0 155.91 0 184.25 0 212.6 0 226.77 14.17 226.77 42.52 226.77"/>
        </g>
    </g>
</svg>