<svg xmlns="http://www.w3.org/2000/svg" width="65mm" height="60mm" viewBox="0 0 184.25 170.08"><defs><style>.cls-1{fill:#e30613;}.cls-2{fill:#bcb88a;}</style></defs><title>SAGEAsset 98E</title><g id="Layer_2" data-name="Layer 2"><g id="Layer_1-2" data-name="Layer 1"><polygon class="cls-1" points="0 141.73 28.35 155.91 28.35 127.56 0 141.73"/><polygon class="cls-2" points="155.91 56.69 141.73 56.69 127.56 56.69 127.56 42.52 127.56 28.35 113.39 28.35 99.21 28.35 85.04 28.35 70.87 28.35 70.87 14.17 70.87 0 56.69 0 42.52 0 28.35 0 14.17 0 14.17 14.17 14.17 28.35 14.17 42.52 14.17 56.69 14.17 70.87 14.17 85.04 14.17 99.21 14.17 113.39 14.17 127.56 28.35 127.56 28.35 155.91 14.17 155.91 14.17 170.08 28.35 170.08 42.52 170.08 56.69 170.08 70.87 170.08 85.04 170.08 99.21 170.08 113.39 170.08 127.56 170.08 141.73 170.08 155.91 170.08 170.08 170.08 184.25 170.08 184.25 155.91 184.25 141.73 184.25 127.56 184.25 113.39 184.25 99.21 184.25 85.04 184.25 70.87 184.25 56.69 170.08 56.69 155.91 56.69"/></g></g></svg>