<svg xmlns="http://www.w3.org/2000/svg" width="65mm" height="70mm" viewBox="0 0 184.25 198.43"><defs><style>.cls-1{fill:#e30613;}.cls-2{fill:#bcb88a;}</style></defs><title>SAGEAsset 51E</title><g id="Layer_2" data-name="Layer 2"><g id="Layer_1-2" data-name="Layer 1"><polygon class="cls-1" points="0 170.08 28.35 184.25 28.35 155.91 0 170.08"/><polygon class="cls-2" points="155.91 0 141.73 0 127.56 0 127.56 14.17 127.56 28.35 127.56 42.52 127.56 56.69 127.56 70.87 127.56 85.04 127.56 99.21 127.56 113.39 113.39 113.39 99.21 113.39 85.04 113.39 70.87 113.39 70.87 99.21 70.87 85.04 56.69 85.04 42.52 85.04 28.35 85.04 14.17 85.04 14.17 99.21 14.17 113.39 14.17 127.56 14.17 141.73 14.17 155.91 28.35 155.91 28.35 184.25 14.17 184.25 14.17 198.43 28.35 198.43 42.52 198.43 56.69 198.43 70.87 198.43 85.04 198.43 99.21 198.43 113.39 198.43 127.56 198.43 141.73 198.43 155.91 198.43 170.08 198.43 184.25 198.43 184.25 184.25 184.25 170.08 184.25 155.91 184.25 141.73 184.25 127.56 184.25 113.39 184.25 99.21 184.25 85.04 184.25 70.87 184.25 56.69 184.25 42.52 184.25 28.35 184.25 14.17 184.25 0 170.08 0 155.91 0"/></g></g></svg>