<svg xmlns="http://www.w3.org/2000/svg" width="65mm" height="50mm" viewBox="0 0 184.25 141.73"><defs><style>.cls-1{fill:#e30613;}.cls-2{fill:#bcb88a;}</style></defs><title>SAGEAsset 75E</title><g id="Layer_2" data-name="Layer 2"><g id="Layer_1-2" data-name="Layer 1"><polygon class="cls-1" points="0 113.39 28.35 127.56 28.35 99.21 0 113.39"/><polygon class="cls-2" points="155.91 0 141.73 0 127.56 0 127.56 14.17 127.56 28.35 113.39 28.35 99.21 28.35 85.04 28.35 70.87 28.35 70.87 14.17 70.87 0 56.69 0 42.52 0 28.35 0 14.17 0 14.17 14.17 14.17 28.35 14.17 42.52 14.17 56.69 14.17 70.87 14.17 85.04 14.17 99.21 28.35 99.21 28.35 127.56 14.17 127.56 14.17 141.73 28.35 141.73 42.52 141.73 56.69 141.73 70.87 141.73 85.04 141.73 99.21 141.73 113.39 141.73 127.56 141.73 141.73 141.73 155.91 141.73 170.08 141.73 184.25 141.73 184.25 127.56 184.25 113.39 184.25 99.21 184.25 85.04 184.25 70.87 184.25 56.69 184.25 42.52 184.25 28.35 184.25 14.17 184.25 0 170.08 0 155.91 0"/></g></g></svg>