<svg xmlns="http://www.w3.org/2000/svg" width="65mm" height="80mm" viewBox="0 0 184.25 226.77"><defs><style>.cls-1{fill:#e30613;}.cls-2{fill:#bcb88a;}</style></defs><title>SAGEAsset 27E</title><g id="Layer_2" data-name="Layer 2"><g id="Layer_1-2" data-name="Layer 1"><polygon class="cls-1" points="0 198.43 28.35 212.6 28.35 184.25 0 198.43"/><polygon class="cls-2" points="155.91 85.04 141.73 85.04 127.56 85.04 113.39 85.04 99.21 85.04 85.04 85.04 70.87 85.04 70.87 70.87 70.87 56.69 70.87 42.52 70.87 28.35 70.87 14.17 70.87 0 56.69 0 42.52 0 28.35 0 14.17 0 14.17 14.17 14.17 28.35 14.17 42.52 14.17 56.69 14.17 70.87 14.17 85.04 14.17 99.21 14.17 113.39 14.17 127.56 14.17 141.73 14.17 155.91 14.17 170.08 14.17 184.25 28.35 184.25 28.35 212.6 14.17 212.6 14.17 226.77 28.35 226.77 42.52 226.77 56.69 226.77 70.87 226.77 85.04 226.77 99.21 226.77 113.39 226.77 127.56 226.77 141.73 226.77 155.91 226.77 170.08 226.77 184.25 226.77 184.25 212.6 184.25 198.43 184.25 184.25 184.25 170.08 184.25 155.91 184.25 141.73 184.25 127.56 184.25 113.39 184.25 99.21 184.25 85.04 170.08 85.04 155.91 85.04"/></g></g></svg>