<svg xmlns="http://www.w3.org/2000/svg" width="65mm" height="70mm" viewBox="0 0 184.25 198.43"><defs><style>.cls-1{fill:#e30613;}.cls-2{fill:#bcb88a;}</style></defs><title>SAGEAsset 77E</title><g id="Layer_2" data-name="Layer 2"><g id="Layer_1-2" data-name="Layer 1"><polygon class="cls-1" points="0 170.08 28.35 184.25 28.35 155.91 0 170.08"/><polygon class="cls-2" points="155.91 85.04 141.73 85.04 127.56 85.04 127.56 70.87 127.56 56.69 127.56 42.52 127.56 28.35 127.56 14.17 127.56 0 113.39 0 99.21 0 85.04 0 70.87 0 70.87 14.17 70.87 28.35 70.87 42.52 70.87 56.69 70.87 70.87 70.87 85.04 70.87 99.21 70.87 113.39 56.69 113.39 42.52 113.39 28.35 113.39 14.17 113.39 14.17 127.56 14.17 141.73 14.17 155.91 28.35 155.91 28.35 184.25 14.17 184.25 14.17 198.43 28.35 198.43 42.52 198.43 56.69 198.43 70.87 198.43 85.04 198.43 99.21 198.43 113.39 198.43 127.56 198.43 141.73 198.43 155.91 198.43 170.08 198.43 184.25 198.43 184.25 184.25 184.25 170.08 184.25 155.91 184.25 141.73 184.25 127.56 184.25 113.39 184.25 99.21 184.25 85.04 170.08 85.04 155.91 85.04"/></g></g></svg>