<svg xmlns="http://www.w3.org/2000/svg" width="65mm" height="30mm" viewBox="0 0 184.25 85.04"><defs><style>.cls-1{fill:#e30613;}.cls-2{fill:#bcb88a;}</style></defs><title>SAGEAsset 123E</title><g id="Layer_2" data-name="Layer 2"><g id="Layer_1-2" data-name="Layer 1"><polygon class="cls-1" points="0 56.69 28.35 70.87 28.35 42.52 0 56.69"/><polygon class="cls-2" points="42.52 85.04 56.69 85.04 70.87 85.04 85.04 85.04 99.21 85.04 113.39 85.04 127.56 85.04 141.73 85.04 155.91 85.04 170.08 85.04 184.25 85.04 184.25 70.87 184.25 56.69 184.25 42.52 184.25 28.35 184.25 14.17 184.25 0 170.08 0 155.91 0 141.73 0 127.56 0 113.39 0 99.21 0 85.04 0 70.87 0 56.69 0 42.52 0 28.35 0 14.17 0 14.17 14.17 14.17 28.35 14.17 42.52 28.35 42.52 28.35 70.87 14.17 70.87 14.17 85.04 28.35 85.04 42.52 85.04"/></g></g></svg>