<svg xmlns="http://www.w3.org/2000/svg" viewBox="0 0 170.08 198.43">
    <defs>
        <style>.cls-1{fill:#009640;}</style>
    </defs>
    <title>GREENAsset 166</title>
    <g id="Layer_2" data-name="Layer 2">
        <g id="Layer_1-2" data-name="Layer 1">
            <polygon class="cls-1"
                     points="127.56 0 113.39 0 113.39 14.17 113.39 42.52 113.39 70.87 113.39 85.04 99.21 85.04 70.87 85.04 56.69 85.04 56.69 70.87 56.69 56.69 42.52 56.69 14.17 56.69 0 56.69 0 70.87 0 99.21 0 127.56 0 141.73 14.17 141.73 42.52 141.73 56.69 141.73 56.69 155.91 56.69 184.25 56.69 198.43 70.87 198.43 99.21 198.43 113.39 198.43 113.39 184.25 113.39 155.91 113.39 141.73 127.56 141.73 155.91 141.73 170.08 141.73 170.08 127.56 170.08 99.21 170.08 70.87 170.08 42.52 170.08 14.17 170.08 0 155.91 0 127.56 0"/>
        </g>
    </g>
</svg>