<svg xmlns="http://www.w3.org/2000/svg" viewBox="0 0 113.39 198.42">
    <defs>
        <style>.cls-1{fill:#009640;}</style>
    </defs>
    <title>GREENAsset 171</title>
    <g id="Layer_2" data-name="Layer 2">
        <g id="Layer_1-2" data-name="Layer 1">
            <polygon class="cls-1"
                     points="113.39 28.35 113.39 14.17 113.39 0 99.21 0 70.87 0 56.69 0 56.69 14.17 56.69 42.52 56.69 56.69 42.52 56.69 14.17 56.69 0 56.69 0 70.86 0 99.21 0 127.56 0 141.73 14.17 141.73 28.35 141.73 28.35 155.9 28.35 184.25 28.35 198.42 42.52 198.42 70.87 198.42 85.04 198.42 85.04 184.25 85.04 155.9 85.04 141.73 99.22 141.73 113.39 141.73 113.39 127.56 113.39 99.21 113.39 70.86 113.39 42.52 113.39 28.35 113.39 28.35"/>
        </g>
    </g>
</svg>