<svg xmlns="http://www.w3.org/2000/svg" viewBox="0 0 113.39 226.77">
    <defs>
        <style>.cls-1{fill:#009640;}</style>
    </defs>
    <title>GREENAsset 170</title>
    <g id="Layer_2" data-name="Layer 2">
        <g id="Layer_1-2" data-name="Layer 1">
            <polygon class="cls-1"
                     points="113.39 70.87 113.39 42.52 113.39 14.17 113.39 0 99.21 0 70.87 0 56.69 0 56.69 14.17 56.69 42.52 56.69 70.87 56.69 85.04 42.52 85.04 14.17 85.04 0 85.04 0 99.21 0 127.56 0 155.91 0 170.08 14.17 170.08 28.35 170.08 28.35 184.25 28.35 212.6 28.35 226.77 42.52 226.77 70.87 226.77 85.04 226.77 85.04 212.6 85.04 184.25 85.04 170.08 99.22 170.08 113.39 170.08 113.39 155.91 113.39 127.56 113.39 99.21 113.39 85.04 113.39 85.04 113.39 70.87"/>
        </g>
    </g>
</svg>