<svg xmlns="http://www.w3.org/2000/svg" viewBox="0 0 198.43 226.77">
    <defs>
        <style>.cls-1{fill:#009640;}</style>
    </defs>
    <title>GREENAsset 161</title>
    <g id="Layer_2" data-name="Layer 2">
        <g id="Layer_1-2" data-name="Layer 1">
            <polygon class="cls-1"
                     points="155.91 0 127.56 0 99.21 0 70.87 0 56.69 0 56.69 14.17 56.69 42.52 56.69 56.69 42.52 56.69 14.17 56.69 0 56.69 0 70.87 0 99.21 0 127.56 0 155.91 0 170.08 14.17 170.08 42.52 170.08 70.87 170.08 85.04 170.08 85.04 184.25 85.04 212.6 85.04 226.77 99.21 226.77 127.56 226.77 141.73 226.77 141.73 212.6 141.73 184.25 141.73 170.08 155.91 170.08 184.25 170.08 198.43 170.08 198.43 155.91 198.43 127.56 198.43 99.21 198.43 70.87 198.43 42.52 198.43 14.17 198.43 0 184.25 0 155.91 0"/>
        </g>
    </g>
</svg>