<svg xmlns="http://www.w3.org/2000/svg" viewBox="0 0 226.77 141.73">
    <defs>
        <style>.cls-1{fill:#009640;}</style>
    </defs>
    <title>GREENAsset 158</title>
    <g id="Layer_2" data-name="Layer 2">
        <g id="Layer_1-2" data-name="Layer 1">
            <polygon class="cls-1"
                     points="184.25 0 170.08 0 170.08 14.17 170.08 28.35 155.91 28.35 127.56 28.35 99.21 28.35 70.87 28.35 56.69 28.35 56.69 14.17 56.69 0 42.52 0 14.17 0 0 0 0 14.17 0 42.52 0 70.87 0 85.04 14.17 85.04 42.52 85.04 70.87 85.04 99.21 85.04 113.39 85.04 113.39 99.21 113.39 127.56 113.39 141.73 127.56 141.73 155.91 141.73 170.08 141.73 170.08 127.56 170.08 99.21 170.08 85.04 184.25 85.04 212.6 85.04 226.77 85.04 226.77 70.87 226.77 42.52 226.77 14.17 226.77 0 212.6 0 184.25 0"/>
        </g>
    </g>
</svg>