<svg xmlns="http://www.w3.org/2000/svg" viewBox="0 0 113.39 141.73">
    <defs>
        <style>.cls-1{fill:#009640;}</style>
    </defs>
    <title>GREENAsset 173</title>
    <g id="Layer_2" data-name="Layer 2">
        <g id="Layer_1-2" data-name="Layer 1">
            <polygon class="cls-1"
                     points="99.22 0 70.87 0 56.7 0 42.52 0 14.17 0 0 0 0 14.17 0 42.52 0 70.86 0 85.04 14.17 85.04 42.52 85.04 70.87 85.04 99.22 85.04 113.39 85.04 113.39 70.86 113.39 42.52 113.39 14.17 113.39 0 99.22 0"/>
            <polygon class="cls-1"
                     points="42.52 85.04 28.35 85.04 28.35 99.21 28.35 127.56 28.35 141.73 42.52 141.73 70.87 141.73 85.04 141.73 85.04 127.56 85.04 99.21 85.04 85.04 70.87 85.04 42.52 85.04"/>
        </g>
    </g>
</svg>