<svg xmlns="http://www.w3.org/2000/svg" viewBox="0 0 170.08 170.08">
    <defs>
        <style>.cls-1{fill:#009640;}</style>
    </defs>
    <title>GREENAsset 167</title>
    <g id="Layer_2" data-name="Layer 2">
        <g id="Layer_1-2" data-name="Layer 1">
            <polygon class="cls-1"
                     points="127.56 0 113.39 0 113.39 14.17 113.39 42.52 113.39 56.69 99.21 56.69 70.87 56.69 56.69 56.69 56.69 42.52 56.69 28.35 42.52 28.35 14.17 28.35 0 28.35 0 42.52 0 70.87 0 99.21 0 113.39 14.17 113.39 42.52 113.39 56.69 113.39 56.69 127.56 56.69 155.91 56.69 170.08 70.87 170.08 99.21 170.08 113.39 170.08 113.39 155.91 113.39 127.56 113.39 113.39 127.56 113.39 155.91 113.39 170.08 113.39 170.08 99.21 170.08 70.87 170.08 42.52 170.08 14.17 170.08 0 155.91 0 127.56 0"/>
        </g>
    </g>
</svg>