<svg xmlns="http://www.w3.org/2000/svg" viewBox="0 0 42.52 42.52">
    <defs>
        <style>.cls-1{fill:#dadada;}.cls-2{fill:#1d1d1b;}</style>
    </defs>
    <title>ICONAsset 182</title>
    <g id="Layer_2" data-name="Layer 2">
        <g id="Layer_1-2" data-name="Layer 1">
            <rect class="cls-1" width="42.52" height="42.52"/>
            <path class="cls-2"
                  d="M21.25,19.92V28.8a16.37,16.37,0,0,1-3.45,1.33,13.31,13.31,0,0,1-3.27.4q-4.47,0-6.56-2.48a10.11,10.11,0,0,1-2.08-6.71A10.73,10.73,0,0,1,7.07,16,7.11,7.11,0,0,1,10.25,13a10.38,10.38,0,0,1,4.55-1,11.68,11.68,0,0,1,3.21.43,10.08,10.08,0,0,1,2.82,1.24l-1.59,2.77A8.29,8.29,0,0,0,15,15.2a4.64,4.64,0,0,0-3.82,1.55,6.8,6.8,0,0,0-1.27,4.43,7.24,7.24,0,0,0,1.19,4.54,4.52,4.52,0,0,0,3.76,1.49,7.28,7.28,0,0,0,2.62-.44v-3.7H13.68l.43-3.15Z"/>
            <path class="cls-2"
                  d="M26.39,29.65a5.41,5.41,0,0,1-2.15-2.37A7.6,7.6,0,0,1,23.52,24a7,7,0,0,1,.92-3.81A5.26,5.26,0,0,1,26.87,18a8.47,8.47,0,0,1,3.37-.65,6.91,6.91,0,0,1,3.53.84,5.3,5.3,0,0,1,2.15,2.32A7.87,7.87,0,0,1,36.63,24a7.16,7.16,0,0,1-.89,3.74,5.25,5.25,0,0,1-2.41,2.14,8.46,8.46,0,0,1-3.45.67A6.53,6.53,0,0,1,26.39,29.65Zm5.8-2.92a5.49,5.49,0,0,0,.6-2.78,5,5,0,0,0-.65-2.83,2.23,2.23,0,0,0-2-1,2.42,2.42,0,0,0-2.13.95A5,5,0,0,0,27.36,24,5,5,0,0,0,28,26.74a2.29,2.29,0,0,0,2.05,1A2.24,2.24,0,0,0,32.19,26.73Z"/>
        </g>
    </g>
</svg>