<svg xmlns="http://www.w3.org/2000/svg" viewBox="0 0 15.92 39.15">
    <defs>
        <style>.cls-1{fill:#fff;}.cls-2{fill:none;stroke:#646363;stroke-width:0.22px;}.cls-3{fill:#006e32;}</style>
    </defs>
    <title>ICONAsset 174</title>
    <g id="Layer_2" data-name="Layer 2">
        <g id="Layer_1-2" data-name="Layer 1">
            <polygon class="cls-1" points="0.11 22.79 0.11 22.79 0.11 39.03 15.8 39.03 15.8 22.79 0.11 22.79"/>
            <polygon class="cls-2" points="0.11 22.79 0.11 22.79 0.11 39.03 15.8 39.03 15.8 22.79 0.11 22.79"/>
            <polygon class="cls-1" points="0.11 0.11 0.11 0.11 0.11 16.36 15.8 16.36 15.8 0.11 0.11 0.11"/>
            <polygon class="cls-2" points="0.11 0.11 0.11 0.11 0.11 16.36 15.8 16.36 15.8 0.11 0.11 0.11"/>
            <polygon class="cls-3" points="4.34 4.42 4.34 4.42 4.34 11.92 11.58 11.92 11.58 4.42 4.34 4.42"/>
            <polygon class="cls-2" points="4.34 4.42 4.34 4.42 4.34 11.92 11.58 11.92 11.58 4.42 4.34 4.42"/>
        </g>
    </g>
</svg>