<svg xmlns="http://www.w3.org/2000/svg" viewBox="0 0 42.52 42.52">
    <defs>
        <style>.cls-1{fill:#dadada;}.cls-2{fill:none;}.cls-3{fill:#6ac0ed;}</style>
    </defs>
    <title>ICONAsset 179</title>
    <g id="Layer_2" data-name="Layer 2">
        <g id="Layer_1-2" data-name="Layer 1">
            <rect class="cls-1" width="42.52" height="42.52"/>
            <path class="cls-2" d="M26.14,25.66c.65-.3,1.31-.58,2-.87l-1.86-.47L24.88,24v2.27Z"/>
            <path class="cls-2" d="M14.74,16.72l-1.68.9,2.51.61,1.38.36V15.51C16.22,15.91,15.49,16.33,14.74,16.72Z"/>
            <path class="cls-3"
                  d="M17,15.51v3.08l4.59,1.18c1.12.28,2.23.58,3.34.89V11q-2.65,1.58-5.37,3.09C18.67,14.58,17.81,15,17,15.51Z"/>
            <path class="cls-3"
                  d="M24.88,26.23V24c-1.53-.39-3.07-.78-4.58-1.21L17,21.83v8.1c1.14-.55,2.27-1.11,3.41-1.64C21.85,27.58,23.37,26.91,24.88,26.23Z"/>
            <path class="cls-3" d="M24.88,10V5.41H17v7.74l1.41-.59C20.51,11.69,22.69,10.84,24.88,10Z"/>
            <path class="cls-3" d="M17,31.55v5.56h7.93v-8.2c-1.13.4-2.26.8-3.4,1.17C20,30.59,18.47,31.07,17,31.55Z"/>
            <path d="M33.39,23c-2-.59-3.94-1.12-5.92-1.67l-2.59-.71V24l1.37.36,1.86.47c-.66.29-1.32.57-2,.87l-1.26.57c-1.51.68-3,1.35-4.52,2.06-1.14.53-2.27,1.09-3.41,1.64-2.67,1.28-5.32,2.6-7.92,4,2.68-.74,5.31-1.55,7.92-2.39,1.52-.48,3-1,4.53-1.47,1.14-.37,2.27-.77,3.4-1.17l2.7-.95c2-.71,4-1.48,6.05-2.22l3.94-1.44Z"/>
            <path d="M15.57,18.23l-2.51-.61,1.68-.9c.75-.39,1.48-.81,2.21-1.21s1.72-.93,2.56-1.41q2.72-1.51,5.37-3.09c1.33-.8,2.66-1.6,4-2.43-1.33.46-2.65.95-4,1.44-2.19.82-4.37,1.67-6.52,2.54L17,13.15c-1.24.51-2.5,1-3.73,1.55-1.69.73-3.41,1.44-5.08,2.21L5,18.37l3.53,1,5.89,1.72,2.58.71V18.59Z"/>
            <path d="M24.88,24v-3.3c-1.11-.31-2.22-.61-3.34-.89L17,18.59v3.24l3.35.92C21.81,23.18,23.35,23.57,24.88,24Z"/>
        </g>
    </g>
</svg>